HIERARCHY
ROOT Hips
{
	OFFSET 0.00000 0.00000 0.00000
	CHANNELS 6 Xposition Yposition Zposition Zrotation Yrotation Xrotation 
	JOINT LHipJoint
	{
		OFFSET 0 0 0
		CHANNELS 3 Zrotation Yrotation Xrotation
		JOINT LeftHip
		{
			OFFSET 1.46561 -1.72757 0.83774
			CHANNELS 3 Zrotation Yrotation Xrotation
			JOINT LeftKnee
			{
				OFFSET 2.48915 -6.83890 0.00000
				CHANNELS 3 Zrotation Yrotation Xrotation
				JOINT LeftAnkle
				{
					OFFSET 2.60555 -7.15868 0.00000
					CHANNELS 3 Zrotation Yrotation Xrotation
					JOINT LeftToe
					{
						OFFSET 0.19248 -0.52884 2.26738
						CHANNELS 3 Zrotation Yrotation Xrotation
						End Site
						{
							OFFSET 0.00000 -0.00000 1.17015
						}
					}
				}
			}
		}
	}
	JOINT RHipJoint
	{
		OFFSET 0 0 0
		CHANNELS 3 Zrotation Yrotation Xrotation
		JOINT RightHip
		{
			OFFSET -1.46918 -1.72757 0.83774
			CHANNELS 3 Zrotation Yrotation Xrotation
			JOINT RightKnee
			{
				OFFSET -2.49034 -6.84216 0.00000
				CHANNELS 3 Zrotation Yrotation Xrotation
				JOINT RightAnkle
				{
					OFFSET -2.65971 -7.30750 0.00000
					CHANNELS 3 Zrotation Yrotation Xrotation
					JOINT RightToe
					{
						OFFSET -0.19227 -0.52827 2.30785
						CHANNELS 3 Zrotation Yrotation Xrotation
						End Site
						{
							OFFSET -0.00000 -0.00000 1.18972
						}
					}
				}
			}
		}
	}
	JOINT lowerback
	{
		OFFSET 0 0 0
		CHANNELS 3 Zrotation Yrotation Xrotation
		JOINT Chest
		{
			OFFSET 0.02432 2.19909 -0.28000
			CHANNELS 3 Zrotation Yrotation Xrotation
			JOINT Chest2
			{
				OFFSET 0.03714 2.21816 -0.15261
				CHANNELS 3 Zrotation Yrotation Xrotation
				JOINT lowerneck
				{
					OFFSET 0 0 0
					CHANNELS 3 Zrotation Yrotation Xrotation
					JOINT Neck
					{
						OFFSET -0.01896 1.56165 0.21681
						CHANNELS 3 Zrotation Yrotation Xrotation
						JOINT Head
						{
							OFFSET 0.02744 1.56009 0.06764
							CHANNELS 3 Zrotation Yrotation Xrotation
							End Site
							{
								OFFSET 0.01212 1.60574 0.00298
							}
						}
					}
				}
				JOINT LeftCollar
				{
					OFFSET 0 0 0
					CHANNELS 3 Zrotation Yrotation Xrotation
					JOINT LeftShoulder
					{
						OFFSET 3.05595 1.48048 -0.60794
CHANNELS 3 Zrotation Xrotation Yrotation
						JOINT LeftElbow
						{
OFFSET 0 -5.206070 -0.000000
CHANNELS 3 Zrotation Xrotation Yrotation
							JOINT LeftWrist
							{
OFFSET 0 -3.399610 0.000000
CHANNELS 3 Zrotation Xrotation Yrotation
								JOINT lhand
								{
									OFFSET 0 0 0
CHANNELS 3 Zrotation Xrotation Yrotation
									JOINT LFingers
									{
OFFSET 0 -0.519690 0.000000
CHANNELS 3 Zrotation Xrotation Yrotation
										End Site
										{
OFFSET 0 -0.418990 0.000000
										}
									}
								}
								JOINT LThumb
								{
OFFSET 0 0.000000 0.000000
CHANNELS 3 Zrotation Xrotation Yrotation
									End Site
									{
OFFSET 0 -0.425390 0.425390
									}
								}
							}
						}
					}
				}
				JOINT RightCollar
				{
					OFFSET 0 0 0
					CHANNELS 3 Zrotation Yrotation Xrotation
					JOINT RightShoulder
					{
						OFFSET -2.99052 1.57608 -0.69102
CHANNELS 3 Zrotation Xrotation Yrotation
						JOINT RightElbow
						{
OFFSET 0 -5.322140 0.000000
CHANNELS 3 Zrotation Xrotation Yrotation
							JOINT RightWrist
							{
OFFSET 0 -3.512080 0.000000
CHANNELS 3 Zrotation Xrotation Yrotation
								JOINT rhand
								{
									OFFSET 0 0 0
CHANNELS 3 Zrotation Xrotation Yrotation
									JOINT RFingers
									{
OFFSET 0 -0.586680 0.000000
CHANNELS 3 Zrotation Xrotation Yrotation
										End Site
										{
OFFSET 0 -0.473000 0.000000
										}
									}
								}
								JOINT RThumb
								{
OFFSET 0 0.000000 0.000000
CHANNELS 3 Zrotation Xrotation Yrotation
									End Site
									{
OFFSET 0 -0.480220 0.480220
									}
								}
							}
						}
					}
				}
			}
		}
	}
}
MOTION
Frames: 11
Frame Time: 0.008333333333333333
0.398200 17.608600 -13.903100 -1.342700 -1.183100 6.096700 0.000000 0.000000 0.000000 -17.689800 2.790800 -12.419400 0.863000 5.923800 16.563500 0.382200 0.041500 -11.694600 0.023400 0.988400 2.716800 0.000000 0.000000 0.000000 19.420700 0.811200 -13.019900 -1.184100 -6.905800 19.436600 -0.484500 4.125100 -12.388100 -0.930200 -6.143900 17.202600 0.333300 -0.803500 -3.006700 1.658400 -1.169000 3.273100 1.443400 -0.601800 5.098700 -1.882300 0.757200 -12.405000 -0.264100 1.708300 34.990200 0.484300 0.444400 13.965300 0.000000 -0.000000 0.000000 -0.097000 -10.111400 -37.631100 10.068200 -16.846200 1.494700 26.364700 -5.980000 3.842000 0.000000 0.000000 0.000000 -7.125000 0.000000 0.000000 -0.200200 25.693300 -0.093600 0.000000 -0.000000 0.000000 -0.824300 -6.693100 14.587200 -12.521000 -20.581400 -2.282100 -22.188100 41.756000 25.236600 0.000000 0.000000 0.000000 7.125000 0.000000 -0.000000 8.223100 56.768500 -2.383000
0.397461 17.608385 -13.903554 -1.354501 -1.172556 6.090058 0.000000 0.000000 0.000000 -17.671081 2.760806 -12.412614 0.864828 5.929775 16.580833 0.382570 0.052299 -11.704192 0.024018 1.000454 2.750173 0.000000 0.000000 0.000000 19.437701 0.824744 -13.002735 -1.183094 -6.902942 19.428110 -0.484594 4.092541 -12.390102 -0.927820 -6.136385 17.180675 0.336928 -0.794629 -3.010129 1.659072 -1.157557 3.278761 1.442890 -0.595971 5.106219 -1.870218 0.756324 -12.422581 -0.287284 1.712933 34.988610 0.473658 0.445014 13.968996 0.000000 0.000000 0.000000 -0.107529 -10.136767 -37.674146 10.073377 -16.854280 1.496117 26.267627 -5.879961 3.736623 0.000000 0.000000 0.000000 -7.125000 0.000000 0.000000 -0.271282 25.814319 -0.126105 0.000000 0.000000 0.000000 -0.824157 -6.684874 14.612773 -12.538676 -20.607584 -2.288341 -22.171703 41.716337 25.278539 0.000000 0.000000 0.000000 7.125000 0.000000 0.000000 8.259114 56.808007 -2.401457
0.397648 17.608239 -13.903573 -1.361463 -1.165210 6.077887 0.000000 0.000000 0.000000 -17.663952 2.751327 -12.406451 0.866495 5.935376 16.597037 0.382400 0.068871 -11.707470 0.022970 0.979401 2.692225 0.000000 0.000000 0.000000 19.445574 0.808268 -12.991630 -1.182378 -6.901135 19.422637 -0.484152 4.099801 -12.384670 -0.925578 -6.129205 17.159785 0.341816 -0.796634 -2.998521 1.657770 -1.160226 3.276426 1.438777 -0.597111 5.097107 -1.876872 0.762114 -12.419266 -0.290978 1.724762 34.993772 0.475161 0.448727 13.970445 0.000000 0.000000 0.000000 -0.109473 -10.126564 -37.715936 10.087189 -16.875877 1.500155 26.281962 -5.952673 3.743503 0.000000 0.000000 0.000000 -7.125000 0.000000 0.000000 -0.260556 25.806058 -0.121120 0.000000 0.000000 0.000000 -0.828467 -6.674463 14.691591 -12.546590 -20.619285 -2.291104 -22.127108 41.660572 25.289077 0.000000 0.000000 0.000000 7.125000 0.000000 0.000000 8.311393 56.809333 -2.417025
0.397209 17.608009 -13.904428 -1.373507 -1.153570 6.074073 0.000000 0.000000 0.000000 -17.648236 2.739908 -12.413080 0.867810 5.939713 16.609702 0.382400 0.068704 -11.707400 0.022900 0.977663 2.687290 0.000000 0.000000 0.000000 19.460481 0.823038 -12.982372 -1.182100 -6.900209 19.420018 -0.484637 4.075041 -12.391695 -0.924616 -6.125976 17.150346 0.351148 -0.790305 -2.990019 1.657427 -1.151958 3.268842 1.433871 -0.592606 5.083945 -1.880194 0.761820 -12.395478 -0.292523 1.725396 34.982858 0.475027 0.448738 13.960204 0.000000 0.000000 0.000000 -0.103780 -10.113301 -37.769799 10.101569 -16.898277 1.504350 26.252889 -5.987898 3.751072 0.000000 0.000000 0.000000 -7.125000 0.000000 0.000000 -0.282708 25.798719 -0.131513 0.000000 0.000000 0.000000 -0.826966 -6.668939 14.712340 -12.550451 -20.625008 -2.292529 -22.125902 41.653639 25.321748 0.000000 0.000000 0.000000 7.125000 0.000000 0.000000 8.327198 56.842683 -2.428427
0.396918 17.607778 -13.905004 -1.377533 -1.142323 6.064935 0.000000 0.000000 0.000000 -17.642277 2.731915 -12.409791 0.868725 5.942798 16.618611 0.382278 0.071715 -11.706853 0.022961 0.977986 2.688137 0.000000 0.000000 0.000000 19.465980 0.822645 -12.973121 -1.182222 -6.900525 19.421015 -0.484982 4.064442 -12.396152 -0.922828 -6.120222 17.133649 0.352096 -0.786395 -2.980266 1.656249 -1.146483 3.264122 1.432635 -0.589781 5.073198 -1.882533 0.764319 -12.381943 -0.297435 1.731425 34.978842 0.474275 0.450594 13.955330 0.000000 0.000000 0.000000 -0.100673 -10.103219 -37.819809 10.115028 -16.919217 1.508205 26.253569 -6.037437 3.760037 0.000000 0.000000 0.000000 -7.125000 0.000000 0.000000 -0.282350 25.788648 -0.131438 0.000000 0.000000 0.000000 -0.829702 -6.661929 14.748956 -12.554541 -20.631091 -2.293947 -22.122192 41.634679 25.341817 0.000000 0.000000 0.000000 7.125000 0.000000 0.000000 8.340130 56.862499 -2.436228
0.396572 17.607548 -13.905656 -1.378428 -1.128373 6.055675 0.000000 0.000000 0.000000 -17.639505 2.724511 -12.404426 0.869152 5.944232 16.622719 0.382048 0.071057 -11.703614 0.023152 0.981642 2.698191 0.000000 0.000000 0.000000 19.468063 0.821444 -12.965390 -1.182756 -6.901939 19.425218 -0.485556 4.053524 -12.403877 -0.921516 -6.116021 17.121391 0.350305 -0.782821 -2.968828 1.654637 -1.141258 3.258630 1.432552 -0.587205 5.060872 -1.882364 0.767503 -12.370771 -0.304441 1.738713 34.976381 0.472481 0.452971 13.951749 0.000000 0.000000 0.000000 -0.094666 -10.093403 -37.868199 10.127628 -16.938885 1.511931 26.268190 -6.092173 3.783471 0.000000 0.000000 0.000000 -7.125000 0.000000 0.000000 -0.271824 25.762074 -0.126654 0.000000 0.000000 0.000000 -0.832471 -6.657477 14.778319 -12.556436 -20.633839 -2.294604 -22.125218 41.624639 25.360422 0.000000 0.000000 0.000000 7.125000 0.000000 0.000000 8.345219 56.882285 -2.441738
0.396318 17.607409 -13.906438 -1.375219 -1.112712 6.047146 0.000000 0.000000 0.000000 -17.641005 2.715972 -12.397002 0.869109 5.944309 16.622835 0.381818 0.069597 -11.698780 0.023291 0.986073 2.710397 0.000000 0.000000 0.000000 19.465665 0.817289 -12.960072 -1.183447 -6.904032 19.431313 -0.485882 4.043161 -12.408079 -0.920480 -6.112657 17.111734 0.345698 -0.779639 -2.958470 1.652112 -1.136372 3.253672 1.432965 -0.584877 5.049641 -1.881553 0.771481 -12.362237 -0.312481 1.747319 34.973530 0.470359 0.455961 13.948639 0.000000 0.000000 0.000000 -0.085908 -10.084946 -37.911744 10.141138 -16.960037 1.515890 26.286740 -6.139952 3.801488 0.000000 0.000000 0.000000 -7.125000 0.000000 0.000000 -0.258179 25.741216 -0.120395 0.000000 0.000000 0.000000 -0.834550 -6.657629 14.799752 -12.555880 -20.633015 -2.294427 -22.129946 41.623465 25.377135 0.000000 0.000000 0.000000 7.125000 0.000000 0.000000 8.347705 56.900429 -2.446073
0.395981 17.607400 -13.907351 -1.370615 -1.095886 6.041241 0.000000 0.000000 0.000000 -17.644203 2.705616 -12.391779 0.868994 5.943875 16.621718 0.381487 0.066376 -11.692883 0.023413 0.988178 2.716282 0.000000 0.000000 0.000000 19.461865 0.810443 -12.958421 -1.184125 -6.905876 19.436735 -0.486106 4.034281 -12.411633 -0.920081 -6.111330 17.107791 0.341034 -0.776979 -2.950010 1.649073 -1.132310 3.249567 1.432932 -0.582918 5.040453 -1.879151 0.775966 -12.358673 -0.322884 1.757334 34.970126 0.467267 0.459403 13.946403 0.000000 0.000000 0.000000 -0.073815 -10.081297 -37.947074 10.153522 -16.979371 1.519484 26.313031 -6.181994 3.824775 0.000000 0.000000 0.000000 -7.125000 0.000000 0.000000 -0.238876 25.714406 -0.111548 0.000000 0.000000 0.000000 -0.834638 -6.663485 14.814641 -12.555449 -20.632424 -2.294281 -22.129251 41.623849 25.394257 0.000000 0.000000 0.000000 7.125000 0.000000 0.000000 8.356040 56.917688 -2.452040
0.395657 17.607400 -13.908272 -1.365926 -1.079471 6.038642 0.000000 0.000000 0.000000 -17.647415 2.694976 -12.390215 0.868900 5.943522 16.620565 0.381257 0.060437 -11.687166 0.023600 0.991015 2.723981 0.000000 0.000000 0.000000 19.458185 0.802192 -12.960911 -1.184565 -6.907151 19.440609 -0.486243 4.026829 -12.414117 -0.919692 -6.109977 17.103817 0.337078 -0.774597 -2.946726 1.646705 -1.128660 3.247148 1.432969 -0.581248 5.036025 -1.879878 0.780805 -12.356003 -0.333417 1.768746 34.962813 0.464826 0.463089 13.942552 0.000000 0.000000 0.000000 -0.060707 -10.085298 -37.967286 10.164832 -16.997038 1.522825 26.320391 -6.197763 3.823991 0.000000 0.000000 0.000000 -7.125000 0.000000 0.000000 -0.233325 25.714952 -0.108934 0.000000 0.000000 0.000000 -0.834898 -6.675775 14.825952 -12.555023 -20.631752 -2.294108 -22.130840 41.621291 25.400182 0.000000 0.000000 0.000000 7.125000 0.000000 0.000000 8.356851 56.924254 -2.453605
0.395427 17.607400 -13.909194 -1.363392 -1.063842 6.037186 0.000000 0.000000 0.000000 -17.648714 2.685103 -12.391845 0.868973 5.943784 16.621314 0.381063 0.053519 -11.681564 0.023600 0.991947 2.726541 0.000000 0.000000 0.000000 19.456886 0.793137 -12.964785 -1.184837 -6.907847 19.442541 -0.486473 4.021061 -12.416992 -0.919080 -6.108065 17.098396 0.337073 -0.771335 -2.945037 1.644202 -1.124168 3.245353 1.430739 -0.578902 5.032980 -1.879506 0.785900 -12.351374 -0.344036 1.780056 34.952407 0.462145 0.466922 13.936970 0.000000 0.000000 0.000000 -0.043997 -10.092348 -37.981656 10.176310 -17.014930 1.526165 26.323743 -6.209818 3.819415 0.000000 0.000000 0.000000 -7.125000 0.000000 0.000000 -0.230647 25.720016 -0.107673 0.000000 0.000000 0.000000 -0.833580 -6.687740 14.836814 -12.557485 -20.635347 -2.294977 -22.135700 41.608603 25.394078 0.000000 0.000000 0.000000 7.125000 0.000000 0.000000 8.348994 56.919072 -2.450257
0.395196 17.607400 -13.910219 -1.362156 -1.046993 6.035625 0.000000 0.000000 0.000000 -17.648665 2.677425 -12.395584 0.869256 5.944619 16.623706 0.380896 0.043500 -11.675492 0.023600 0.991940 2.726625 0.000000 0.000000 0.000000 19.456883 0.783314 -12.968506 -1.184952 -6.908256 19.443715 -0.486808 4.015414 -12.421452 -0.918648 -6.106748 17.094496 0.338031 -0.768306 -2.945360 1.643052 -1.120142 3.245619 1.429288 -0.576869 5.033275 -1.878325 0.791752 -12.346842 -0.355804 1.792671 34.939833 0.459098 0.471329 13.930341 0.000000 0.000000 0.000000 -0.025070 -10.103986 -37.994115 10.187269 -17.031913 1.529350 26.320133 -6.218602 3.811971 0.000000 0.000000 0.000000 -7.125000 0.000000 0.000000 -0.233184 25.728392 -0.108838 0.000000 0.000000 0.000000 -0.833927 -6.701813 14.849819 -12.561673 -20.641608 -2.296475 -22.144771 41.588287 25.381016 0.000000 0.000000 0.000000 7.125000 0.000000 0.000000 8.333487 56.907606 -2.443343
